# xmcd
#
# Track frame offsets:
#	150
#	17519
#	34108
#	59390
#	73638
#	93236
#	117459
#	149986
#	168246
#	184389
#	201897
#
# Disc length: 2913 seconds
#
# Revision: 0
# Processed by: cddbd v1.4PL0 Copyright (c) Steve Scherf et al.
# Submitted via: audiograbber 1.81.01
#
DISCID=a20b5f0b
DTITLE=The Cobalt Project - Conversations with Lightnin'
DYEAR=2002
DGENRE=Blues
TTITLE0=Almost Over
TTITLE1=Without My Baby
TTITLE2=My Song
TTITLE3=Low Down Dirty Dog
TTITLE4=Over The Hump
TTITLE5=Graveyard
TTITLE6=Rain
TTITLE7=I Got A Feelin'
TTITLE8=Love Just Aint Enough Hell
TTITLE9=Apple Tree
TTITLE10=Mulligan
EXTD=
EXTT0=
EXTT1=
EXTT2=
EXTT3=
EXTT4=
EXTT5=
EXTT6=
EXTT7=
EXTT8=
EXTT9=
EXTT10=
PLAYORDER=
